<?xml version="1.0" encoding="UTF-8"?>
<svg width="20px" height="20px" viewBox="0 0 20 20" version="1.1" xmlns="http://www.w3.org/2000/svg" xmlns:xlink="http://www.w3.org/1999/xlink">
    <!-- Generator: Sketch 50.2 (55047) - http://www.bohemiancoding.com/sketch -->
    <title>be</title>
    <desc>Created with Sketch.</desc>
    <defs></defs>
    <g id="Page-1" stroke="none" stroke-width="1" fill="none" fill-rule="evenodd">
        <g id="Splash" transform="translate(-280.000000, -945.000000)" fill="#1B1B1B" fill-rule="nonzero">
            <g id="Group" transform="translate(148.000000, 945.000000)">
                <path d="M134.380952,0 C133.066667,0 132,1.06666667 132,2.38095238 L132,17.6190476 C132,18.9333333 133.066667,20 134.380952,20 L149.619048,20 C150.933333,20 152,18.9333333 152,17.6190476 L152,2.38095238 C152,1.06666667 150.933333,0 149.619048,0 L134.380952,0 Z M135.809524,6.66664978 L139.014509,6.66666667 C139.362128,6.66666667 141.242931,6.64300571 141.242931,8.36681524 C141.242931,9.28110143 140.618936,9.59032762 140.337984,9.72842286 C140.757031,9.86175619 141.52381,10.247619 141.52381,11.4285714 C141.52381,13.252381 139.43311,13.3333333 139.152158,13.3333333 L135.809524,13.3333333 L135.809524,6.66664978 Z M143.904762,6.66666667 L147.238095,6.66666667 L147.238095,7.61904762 L143.904762,7.61904762 L143.904762,6.66666667 Z M137.238095,7.82366095 L137.238095,9.38616095 L138.771763,9.38616095 C138.981287,9.38616095 139.675781,9.27142857 139.675781,8.57142857 C139.675781,7.87142857 138.77128,7.82366095 138.633185,7.82366095 L137.238095,7.82366095 Z M145.681176,8.0952381 C147.538319,8.0952381 148.042671,9.54274571 148.118861,9.88560286 C148.19029,10.2332219 148.190476,10.5380952 148.190476,10.952381 L144.428385,10.952381 C144.428385,11.3666667 144.647917,12.3000371 145.75744,12.3000371 C146.052679,12.3000371 146.271168,12.228869 146.494978,12.0907738 C146.714025,11.9526786 146.790923,11.8187129 146.862351,11.6806176 L148.114211,11.6806176 C147.895164,12.2282367 147.600037,12.6432662 147.15718,12.9194567 C146.714323,13.1956471 146.200037,13.3333333 145.609561,13.3333333 C145.238132,13.3333333 144.871429,13.2621652 144.5,13.12407 C144.204762,12.9859748 143.909896,12.7810267 143.690848,12.5762648 C143.4718,12.366741 143.324144,12.090439 143.176525,11.7475819 C143.028906,11.4713914 142.952381,11.0571429 142.952381,10.7142857 C142.952381,10.3714286 143.0907,8.0952381 145.681176,8.0952381 Z M145.681176,9.06157 C144.604985,9.06157 144.428385,10.0951638 144.428385,10.1618305 L146.790737,10.1618305 C146.714546,9.81897333 146.404985,9.06157 145.681176,9.06157 Z M137.238095,10.3385419 L137.238095,12.176339 L138.834077,12.176339 C138.971697,12.176339 139.942709,12.1337795 139.942709,11.2909229 C139.942708,10.4528271 139.179791,10.3385419 138.834077,10.3385419 L137.238095,10.3385419 Z" id="be"></path>
            </g>
        </g>
    </g>
</svg>