<?xml version="1.0" encoding="UTF-8"?>
<svg width="20px" height="20px" viewBox="0 0 20 20" version="1.1" xmlns="http://www.w3.org/2000/svg" xmlns:xlink="http://www.w3.org/1999/xlink">
    <!-- Generator: Sketch 50.2 (55047) - http://www.bohemiancoding.com/sketch -->
    <title>dr</title>
    <desc>Created with Sketch.</desc>
    <defs></defs>
    <g id="Page-1" stroke="none" stroke-width="1" fill="none" fill-rule="evenodd">
        <g id="Splash" transform="translate(-236.000000, -945.000000)" fill="#1B1B1B" fill-rule="nonzero">
            <g id="Group" transform="translate(148.000000, 945.000000)">
                <path d="M97.5652174,0.0101904348 C94.7442257,0.132473043 92.2255435,1.4283287 90.4796196,3.42051652 C92.7520383,4.5822013 94.3434104,6.88179348 94.4996604,9.56521739 L97.5652174,9.56521739 L97.5652174,0.0101904348 Z M98.4347826,0.0101904348 L98.4347826,9.56521739 L101.50034,9.56521739 C101.65659,6.88179348 103.247962,4.5822013 105.52038,3.42051652 C103.774457,1.4283287 101.255774,0.132473043 98.4347826,0.0101904348 Z M89.9225543,4.11514957 C88.794837,5.65896739 88.0985057,7.53396739 88.0101904,9.56521739 L93.6300952,9.56521739 C93.4704483,7.15523087 91.9996604,5.10529913 89.9225543,4.11514957 Z M106.077446,4.11514957 C104.00034,5.10529913 102.529552,7.15523087 102.369905,9.56521739 L107.988111,9.56521739 C107.901495,7.53396739 107.205163,5.65896739 106.077446,4.11514957 Z M88.0101904,10.4347826 C88.0985057,12.4660326 88.794837,14.3410326 89.9225543,15.8848504 C91.9996604,14.8947013 93.4704483,12.8447691 93.6300952,10.4347826 L88.0101904,10.4347826 Z M94.4996604,10.4347826 C94.3417122,13.1182065 92.7520383,15.4177991 90.4796196,16.5811822 C92.2238452,18.5716713 94.7442257,19.8675274 97.5652174,19.9881113 L97.5652174,10.4347826 L94.4996604,10.4347826 Z M98.4347826,10.4347826 L98.4347826,19.9881113 C101.255774,19.8675274 103.774457,18.5716713 105.52038,16.5811822 C103.247962,15.4177991 101.65659,13.1182065 101.50034,10.4347826 L98.4347826,10.4347826 Z M102.369905,10.4347826 C102.529552,12.8447691 104.00034,14.8947013 106.077446,15.8848504 C107.205163,14.3410326 107.901495,12.4660326 107.988111,10.4347826 L102.369905,10.4347826 Z" id="dr"></path>
            </g>
        </g>
    </g>
</svg>