<?xml version="1.0" encoding="UTF-8"?>
<svg width="18px" height="18px" viewBox="0 0 18 18" version="1.1" xmlns="http://www.w3.org/2000/svg" xmlns:xlink="http://www.w3.org/1999/xlink">
    <!-- Generator: Sketch 50.2 (55047) - http://www.bohemiancoding.com/sketch -->
    <title>fb</title>
    <desc>Created with Sketch.</desc>
    <defs></defs>
    <g id="Page-1" stroke="none" stroke-width="1" fill="none" fill-rule="evenodd">
        <g id="Splash" transform="translate(-148.000000, -946.000000)" fill="#1B1B1B" fill-rule="nonzero">
            <g id="Group" transform="translate(148.000000, 945.000000)">
                <path d="M16.3636364,1 L1.63636364,1 C0.732272727,1 0,1.73227273 0,2.63636364 L0,17.3636364 C0,18.2677273 0.732272727,19 1.63636364,19 L9.81818182,19 L9.81818182,11.6363636 L7.36363636,11.6363636 L7.36363636,9.18181818 L9.81818182,9.18181818 L9.81818182,7.86372727 C9.81818182,5.36827273 11.034,4.27272727 13.1080909,4.27272727 C14.1013636,4.27272727 14.6266364,4.34636364 14.8753636,4.37990909 L14.8753636,6.72727273 L13.4607273,6.72727273 C12.5803636,6.72727273 12.2727273,7.192 12.2727273,8.13290909 L12.2727273,9.18181818 L14.8532727,9.18181818 L14.5030909,11.6363636 L12.2727273,11.6363636 L12.2727273,19 L16.3636364,19 C17.2677273,19 18,18.2677273 18,17.3636364 L18,2.63636364 C18,1.73227273 17.2669091,1 16.3636364,1 Z" id="fb"></path>
            </g>
        </g>
    </g>
</svg>