<?xml version="1.0" encoding="UTF-8"?>
<svg width="79px" height="47px" viewBox="0 0 79 47" version="1.1" xmlns="http://www.w3.org/2000/svg" xmlns:xlink="http://www.w3.org/1999/xlink">
    <!-- Generator: Sketch 50.2 (55047) - http://www.bohemiancoding.com/sketch -->
    <title>Logo</title>
    <desc>Created with Sketch.</desc>
    <defs></defs>
    <g id="Page-1" stroke="none" stroke-width="1" fill="none" fill-rule="evenodd">
        <g id="Splash" transform="translate(-145.000000, -60.000000)">
            <g id="Logo" transform="translate(145.000000, 60.000000)">
                <rect id="Canvas-Copy-3" fill="#FF5000" x="0" y="0" width="79" height="23" rx="1"></rect>
                <rect id="Canvas-Copy-7" fill="#FF5000" x="0" y="24" width="39.5584853" height="23" rx="1"></rect>
                <path d="M11.4202435,8.33485317 C11.8859116,7.29567084 12.7032956,6.77608747 13.8724198,6.77608747 C14.7344013,6.77608747 15.40317,7.06804384 15.8787459,7.65196534 C16.3345062,8.20619591 16.562383,8.97814834 16.562383,9.9678458 L16.562383,14.1839359 L14.7938437,14.1839359 L14.7938437,9.9678458 C14.7938437,9.43340917 14.6650438,9.03011351 14.4074401,8.75794671 C14.1498365,8.48577991 13.788206,8.34969855 13.3225379,8.34969855 C12.8568697,8.34969855 12.4754239,8.55258349 12.1781889,8.95835944 C11.8809539,9.3641354 11.722431,9.97773861 11.7026153,10.7991875 L11.7026153,14.1839359 L9.9489377,14.1839359 L9.9489377,9.9678458 C9.9489377,9.43340917 9.82013781,9.03011351 9.56253416,8.75794671 C9.30493051,8.48577991 8.94330004,8.34969855 8.4776319,8.34969855 C8.01196376,8.34969855 7.61317948,8.5575319 7.28126708,8.97320483 C6.94935468,9.38887776 6.77349329,10.0123778 6.75367762,10.8437237 L6.75367762,14.1839359 L5,14.1839359 L5,6.96907751 L6.5307525,6.96907751 L6.72395427,8.21609006 C7.19953025,7.25608354 7.96242192,6.77608747 9.01265219,6.77608747 C9.61702999,6.77608747 10.119845,6.91464304 10.5211122,7.19175832 C10.9223794,7.46887361 11.2220869,7.84990141 11.4202435,8.33485317 Z M21.3354574,6.77608747 C21.8209412,6.77608747 22.2766947,6.85278787 22.7027315,7.00619098 C23.1287683,7.15959408 23.4953526,7.3946437 23.8024954,7.71134689 C24.4861359,8.4041351 24.827951,9.36412723 24.827951,10.5913521 C24.827951,11.798783 24.4861359,12.7488783 23.8024954,13.4416665 C23.1882098,14.0750729 22.365872,14.3917713 21.3354574,14.3917713 C20.3050428,14.3917713 19.4727974,14.0750729 18.8386961,13.4416665 C18.1550556,12.7587752 17.8132405,11.8086799 17.8132405,10.5913521 C17.8132405,9.35423026 18.1550556,8.39423813 18.8386961,7.71134689 C19.4628895,7.08783749 20.295135,6.77608747 21.3354574,6.77608747 Z M23.0742734,10.5765067 C23.0742734,9.81443965 22.9256581,9.24289794 22.6284231,8.86186442 C22.3311882,8.4808309 21.9175423,8.290317 21.3874733,8.290317 C20.8574042,8.290317 20.4239431,8.4808309 20.0870767,8.86186442 C19.7502104,9.24289794 19.5817798,9.81443965 19.5817798,10.5765067 C19.5817798,11.3385737 19.732872,11.9101154 20.0350609,12.2911489 C20.3372498,12.6721825 20.7508956,12.8626964 21.2760107,12.8626964 C21.8011259,12.8626964 22.2321101,12.6721825 22.5689764,12.2911489 C22.9058427,11.9101154 23.0742734,11.3385737 23.0742734,10.5765067 Z M29.0511435,6.77608747 C29.5069038,6.77608747 29.9155958,6.85278787 30.2772317,7.00619098 C30.6388675,7.15959408 30.9435288,7.36000481 31.1912246,7.60742918 C31.6866163,8.08248395 31.978893,8.68124193 32.0680635,9.40372107 L30.2995242,9.44825723 C30.2202615,9.13155405 30.0741232,8.86928816 29.8611048,8.66145169 C29.6480864,8.45361523 29.4028712,8.34969855 29.1254519,8.34969855 C28.8480325,8.34969855 28.6102481,8.39176006 28.4120915,8.47588435 C28.2139348,8.56000863 28.0405503,8.69114158 27.8919328,8.86928712 C27.5550665,9.28496005 27.3866359,9.85897596 27.3866359,10.5913521 C27.3866359,11.3237282 27.5451589,11.8754762 27.8622095,12.2466128 C28.1792601,12.6177493 28.5631829,12.8033148 29.0139893,12.8033148 C29.4647957,12.8033148 29.7917493,12.6969239 29.9948598,12.484139 C30.1979704,12.271354 30.2995242,11.9818719 30.2995242,11.6156838 L32.0680635,11.6156838 C32.0680635,12.4074418 31.8055098,13.0655807 31.2803947,13.5901204 C30.7453717,14.124557 29.9973416,14.3917713 29.0362818,14.3917713 C28.0851299,14.3917713 27.2875613,14.0453824 26.6435522,13.3525942 C25.9599117,12.6103211 25.6180966,11.6849678 25.6180966,10.5765067 C25.6180966,9.40866369 25.9599117,8.47341363 26.6435522,7.77072844 C27.2875613,7.10763115 28.0900837,6.77608747 29.0511435,6.77608747 Z M36.1277775,10.665579 L35.3252471,11.3336215 L35.3252471,14.1839359 L33.5715695,14.1839359 L33.5715695,4 L35.3252471,4 L35.3252471,9.50763878 L38.1786886,6.96907751 L40.5565566,6.96907751 L37.3612965,9.64124727 L40.7348967,14.1839359 L38.5948155,14.1839359 L36.1277775,10.665579 Z M46.3105016,12.8775418 C45.8547413,13.8375483 45.1215727,14.3175443 44.1109737,14.3175443 C42.8328633,14.3175443 41.9907101,13.8177546 41.584489,12.8181602 C41.4358715,12.4717661 41.3615639,12.051151 41.3615639,11.5563023 L41.3615639,6.95423212 L43.1152415,6.95423212 L43.1152415,11.3781576 C43.1152415,11.8532124 43.2291799,12.2070239 43.45706,12.4396028 C43.6849402,12.6721817 43.9648323,12.7884694 44.2967447,12.7884694 C44.628657,12.7884694 44.9085491,12.7414595 45.1364293,12.6474382 C45.3643094,12.553417 45.5624631,12.4123872 45.7308963,12.2243447 C46.0974861,11.7987748 46.2906859,11.2297073 46.3105016,10.5171251 L46.3105016,6.95423212 L48.0641792,6.95423212 L48.0641792,14.1839359 L46.3105016,14.1839359 L46.3105016,12.8775418 Z M51.8266598,7.94887309 C52.2824201,7.1670121 52.975958,6.77608747 53.9072942,6.77608747 C54.7989992,6.77608747 55.5618909,7.11257956 56.1959922,7.78557383 C56.8697248,8.49815599 57.206586,9.42845764 57.206586,10.5765067 C57.206586,11.7344527 56.8647709,12.6697028 56.1811305,13.3822849 C55.5470292,14.0552792 54.7890914,14.3917713 53.9072942,14.3917713 C53.0254971,14.3917713 52.3814977,14.1295054 51.9752765,13.6049657 L51.9752765,17.7022927 L50.2215989,17.7022927 L50.2215989,6.96907751 L51.6631813,6.96907751 L51.8266598,7.94887309 Z M53.5951991,12.8033148 C53.8032636,12.8033148 54.0187557,12.7587791 54.2416819,12.6697063 C54.4646082,12.5806336 54.6652388,12.442078 54.8435798,12.2540355 C55.2398931,11.8383625 55.4380467,11.2816661 55.4380467,10.5839294 C55.4380467,9.88619268 55.2671392,9.33939304 54.925319,8.94351406 C54.5834987,8.54763507 54.167376,8.34969855 53.6769383,8.34969855 C53.1865006,8.34969855 52.7852394,8.49072832 52.4731426,8.7727921 C52.1610459,9.05485587 51.9950922,9.45815153 51.9752765,9.98269118 L51.9752765,11.2742399 C51.9752765,11.7393977 52.1387533,12.1154771 52.4657118,12.4024894 C52.7728546,12.6697077 53.1493466,12.8033148 53.5951991,12.8033148 Z" id="mockup" fill="#FFFFFF"></path>
                <path d="M7.79044324,33.0267061 C8.33538101,33.0267061 8.96486865,33.115864 9.67892503,33.2941824 L9.67892503,32.6184527 C9.67892503,32.1398084 9.58262282,31.7855231 9.39001551,31.5555861 C9.19740819,31.3256492 8.88266437,31.2106824 8.44577461,31.2106824 C8.00888485,31.2106824 7.67300152,31.2974941 7.43811455,31.4711199 C7.20322758,31.6447458 7.08578586,31.8911031 7.08578586,32.2101993 L5.26776981,32.2101993 C5.26776981,31.4312292 5.54258344,30.8681267 6.09221895,30.520875 C6.64185445,30.1736233 7.40992332,30 8.39644859,30 C9.80577041,30 10.7171182,30.4927147 11.1305192,31.4781588 C11.2714514,31.8160253 11.3419165,32.2148896 11.3419165,32.6747635 L11.3419165,37.0247737 L9.89032225,37.0247737 L9.76348392,36.109723 C9.32189642,36.8511524 8.64543209,37.2218615 7.73407065,37.2218615 C6.85089565,37.2218615 6.16503599,37.0060055 5.67647109,36.5742872 C5.22548811,36.1613392 5,35.6381231 5,35.0046233 C5,34.3711235 5.24897645,33.8831014 5.74693683,33.5405422 C6.2448972,33.1979831 6.9260592,33.0267061 7.79044324,33.0267061 Z M9.67892503,34.3500101 C9.12459179,34.1998472 8.60784821,34.1247669 8.12867879,34.1247669 C7.22671283,34.1247669 6.77573661,34.4250882 6.77573661,35.0257399 C6.77573661,35.2791398 6.87908533,35.497342 7.08578586,35.680353 C7.29248639,35.8633641 7.62367205,35.9548682 8.07935277,35.9548682 C8.53503349,35.9548682 8.91084701,35.8023613 9.20680459,35.4973429 C9.50276217,35.1923245 9.66013408,34.8098841 9.67892503,34.3500101 Z M14.7125275,31.1121385 C15.1447195,30.3707091 15.8023932,30 16.6855682,30 C17.5311613,30 18.2546023,30.3190914 18.8559129,30.9572838 C19.4948055,31.6330169 19.814247,32.5152108 19.814247,33.6038919 C19.814247,34.7019582 19.4901078,35.5888446 18.8418198,36.2645777 C18.2405092,36.9027701 17.5217658,37.2218615 16.6855682,37.2218615 C15.8493706,37.2218615 15.2386736,36.9731579 14.853459,36.4757432 L14.853459,40.3611892 L13.1904676,40.3611892 L13.1904676,30.1830101 L14.5575029,30.1830101 L14.7125275,31.1121385 Z M16.3896121,35.7155473 C16.5869171,35.7155473 16.7912657,35.6733146 17.002664,35.588848 C17.2140623,35.5043813 17.4043179,35.3729908 17.5734365,35.1946723 C17.9492557,34.8004947 18.1371624,34.2725861 18.1371624,33.6109307 C18.1371624,32.9492754 17.9750928,32.4307519 17.6509488,32.0553446 C17.3268048,31.6799373 16.9322006,31.4922365 16.4671244,31.4922365 C16.0020482,31.4922365 15.621537,31.6259733 15.3255794,31.893451 C15.0296219,32.1609287 14.87225,32.5433691 14.853459,33.0407838 L14.853459,34.2655439 C14.853459,34.7066475 15.0084821,35.063279 15.3185329,35.3354493 C15.6097927,35.5888492 15.9668156,35.7155473 16.3896121,35.7155473 Z M22.7338773,31.1121385 C23.1660693,30.3707091 23.823743,30 24.706918,30 C25.5525111,30 26.2759521,30.3190914 26.8772627,30.9572838 C27.5161553,31.6330169 27.8355968,32.5152108 27.8355968,33.6038919 C27.8355968,34.7019582 27.5114576,35.5888446 26.8631696,36.2645777 C26.2618589,36.9027701 25.5431156,37.2218615 24.706918,37.2218615 C23.8707204,37.2218615 23.2600234,36.9731579 22.8748088,36.4757432 L22.8748088,40.3611892 L21.2118174,40.3611892 L21.2118174,30.1830101 L22.5788527,30.1830101 L22.7338773,31.1121385 Z M24.4109619,35.7155473 C24.6082669,35.7155473 24.8126155,35.6733146 25.0240138,35.588848 C25.2354121,35.5043813 25.4256677,35.3729908 25.5947863,35.1946723 C25.9706054,34.8004947 26.1585122,34.2725861 26.1585122,33.6109307 C26.1585122,32.9492754 25.9964426,32.4307519 25.6722986,32.0553446 C25.3481546,31.6799373 24.9535504,31.4922365 24.4884742,31.4922365 C24.023398,31.4922365 23.6428868,31.6259733 23.3469292,31.893451 C23.0509717,32.1609287 22.8935998,32.5433691 22.8748088,33.0407838 L22.8748088,34.2655439 C22.8748088,34.7066475 23.0298319,35.063279 23.3398827,35.3354493 C23.6311425,35.5888492 23.9881653,35.7155473 24.4109619,35.7155473 Z" id="app" fill="#FFFFFF"></path>
            </g>
        </g>
    </g>
</svg>