<?xml version="1.0" encoding="UTF-8"?>
<svg width="26px" height="26px" viewBox="0 0 26 26" version="1.1" xmlns="http://www.w3.org/2000/svg" xmlns:xlink="http://www.w3.org/1999/xlink">
    <!-- Generator: Sketch 50.2 (55047) - http://www.bohemiancoding.com/sketch -->
    <title>Logo Copy 2</title>
    <desc>Created with Sketch.</desc>
    <defs></defs>
    <g id="Page-1" stroke="none" stroke-width="1" fill="none" fill-rule="evenodd">
        <g id="Splash" transform="translate(-144.000000, -796.000000)">
            <g id="Group-5" transform="translate(145.000000, 698.000000)">
                <g id="Logo-Copy-2" transform="translate(0.000000, 99.000000)">
                    <circle id="Oval" stroke="#E4E4E4" cx="12" cy="12" r="12"></circle>
                    <path d="M12.7153554,11.2837365 C12.5313881,11.0545414 12.4005462,10.8850287 12.2734847,10.7071475 C11.9329067,10.2473399 11.8329351,9.7467713 11.9338042,9.18883531 L11.9412078,9.15301577 C11.9774036,8.99756463 12.0331589,8.8469274 12.1074238,8.70146819 C12.1776686,8.56453909 12.263515,8.43426276 12.3629574,8.31258147 C12.4907484,8.15616779 12.6404793,8.01437586 12.8174965,7.88340953 C13.4098747,7.45962528 14.1107529,7.32520125 14.8953331,7.40764689 C15.4199188,7.46277164 15.8585599,7.58164921 16.6153846,7.83480204 L16.0888742,9.27413728 C14.8371674,8.85544967 14.2189203,8.7893179 13.7781117,9.10056683 C13.7172968,9.146222 13.6636937,9.19732213 13.6194802,9.25143844 C13.5870503,9.29112092 13.5601161,9.33199496 13.5397236,9.37174312 C13.5228939,9.40470745 13.5102371,9.437177 13.5015677,9.46911677 C13.4748538,9.63165569 13.494813,9.71877622 13.5864927,9.84182497 C13.6947855,9.99370642 13.8108243,10.1441374 13.9803141,10.3552958 C13.9627936,10.3334679 14.2199786,10.6524429 14.2908107,10.7417607 C14.5957036,11.1262242 14.799657,11.4164869 14.9725037,11.7353541 C15.1962979,12.1482091 15.3375809,12.5668957 15.3911892,13.0272794 C15.4100779,13.2091288 15.413513,13.3907869 15.4008234,13.5718193 C15.3740992,13.9514773 15.276483,14.3239397 15.1062245,14.6833656 C15.0284664,14.8476475 14.9343865,15.0043321 14.8255125,15.1520402 C14.5151521,15.5734075 14.0897829,15.9151937 13.5917626,16.1552199 C13.40058,16.2473297 13.2000128,16.323798 12.9713378,16.3896528 C11.4462426,16.7864253 9.74410267,16.3535774 8.68222992,15.276505 L9.84251569,14.230497 C10.4917467,14.8890211 11.5789351,15.167359 12.5417318,14.921117 C12.6574289,14.8870286 12.7688418,14.8442368 12.8741637,14.7934938 C13.1442695,14.6633134 13.3666513,14.4846286 13.5219657,14.2737629 C13.5736116,14.2036953 13.6175517,14.1305157 13.6535806,14.0543965 C13.7450267,13.8613481 13.7958746,13.667334 13.8097914,13.4696256 C13.8163875,13.3755244 13.8147055,13.2798376 13.8048431,13.1825066 C13.7481804,12.7056465 13.5331827,12.3099775 13.0202209,11.6631435 C12.9539304,11.5795526 12.7014457,11.2664071 12.7153554,11.2837365 Z M11.0148084,8.16796206 L11.0148084,11.9195637 L11.9903154,11.9195637 L11.9903154,13.4444156 L9.42019118,13.4444156 L9.42019118,8.16796206 L11.0148084,8.16796206 Z M8.61436025,11.5460978 C8.61436025,12.1146558 8.13252009,12.5755423 7.53799365,12.5755423 C6.94337862,12.5755423 6.46153846,12.1146558 6.46153846,11.5460978 C6.46153846,10.9776669 6.94337862,10.5168651 7.53799365,10.5168651 C8.13252009,10.5168651 8.61436025,10.9776669 8.61436025,11.5460978 Z" id="Combined-Shape" fill="#1B1B1B" fill-rule="nonzero"></path>
                </g>
            </g>
        </g>
    </g>
</svg>