<?xml version="1.0" encoding="UTF-8"?>
<svg width="21px" height="18px" viewBox="0 0 21 18" version="1.1" xmlns="http://www.w3.org/2000/svg" xmlns:xlink="http://www.w3.org/1999/xlink">
    <!-- Generator: Sketch 50.2 (55047) - http://www.bohemiancoding.com/sketch -->
    <title>tw</title>
    <desc>Created with Sketch.</desc>
    <defs></defs>
    <g id="Page-1" stroke="none" stroke-width="1" fill="none" fill-rule="evenodd">
        <g id="Splash" transform="translate(-193.000000, -946.000000)" fill="#1B1B1B" fill-rule="nonzero">
            <g id="Group" transform="translate(148.000000, 945.000000)">
                <path d="M66,3.403 C65.2556667,3.75072727 64.4561111,3.98472727 63.6168889,4.09027273 C64.474,3.55027273 65.1312222,2.69527273 65.4407778,1.67581818 C64.6396667,2.17572727 63.7514444,2.539 62.8056667,2.73536364 C62.0488889,1.88690909 60.9708889,1.35672727 59.7777778,1.35672727 C57.4864444,1.35672727 55.6291111,3.31136364 55.6291111,5.72090909 C55.6291111,6.06290909 55.6664444,6.39672727 55.7364444,6.715 C52.2885556,6.53336364 49.2318889,4.79554545 47.1847778,2.15445455 C46.8285556,2.79918182 46.624,3.54863636 46.624,4.34963636 C46.624,5.86327273 47.3558889,7.19936364 48.4688889,7.98154545 C47.7891111,7.95863636 47.149,7.76227273 46.5897778,7.43581818 C46.5897778,7.45463636 46.5897778,7.47181818 46.5897778,7.49063636 C46.5897778,9.60563636 48.0193333,11.3696364 49.9178889,11.7697273 C49.5702222,11.8695455 49.2031111,11.9227273 48.8243333,11.9227273 C48.5575556,11.9227273 48.297,11.8949091 48.0442222,11.845 C48.5723333,13.5787273 50.1045556,14.8411818 51.9198889,14.8763636 C50.5004444,16.0471818 48.7115556,16.7450909 46.7671111,16.7450909 C46.4326667,16.7450909 46.1021111,16.7246364 45.777,16.6837273 C47.6133333,17.9216364 49.7934444,18.6440909 52.1368889,18.6440909 C59.7684444,18.6440909 63.9404444,11.9939091 63.9404444,6.22654545 C63.9404444,6.03754545 63.9365556,5.84936364 63.9287778,5.662 C64.74,5.04590909 65.4438889,4.27763636 66,3.403 Z" id="tw"></path>
            </g>
        </g>
    </g>
</svg>