<?xml version="1.0" encoding="utf-8"?>
<!-- Generator: Adobe Illustrator 21.1.0, SVG Export Plug-In . SVG Version: 6.00 Build 0)  -->
<svg version="1.1" id="Layer_1" xmlns="http://www.w3.org/2000/svg" xmlns:xlink="http://www.w3.org/1999/xlink" x="0px" y="0px"
	 viewBox="0 0 748 1623" style="enable-background:new 0 0 748 1623;" xml:space="preserve">
<style type="text/css">
	.st0{fill:#FFFFFF;}
</style>
<rect y="0" width="748" height="1623"/>
<title>mask</title>
<desc>Created with Sketch.</desc>
<g id="Page-1">
	<path id="mask" class="st0" d="M209,61h331c24.5,0,44.5-19.6,45-44l0-6c0-6.1,4.9-11,11-11h76c42,0,76,34,76,76v1471
		c0,42-34,76-76,76H76c-42,0-76-34-76-76V76C0,34,34,0,76,0h77c6.1,0,11,4.9,11,11v6C164.5,41.4,184.5,61,209,61z"/>
</g>
</svg>
