<?xml version="1.0" encoding="UTF-8"?>
<svg width="1242px" height="2688px" viewBox="0 0 1242 2688" version="1.1" xmlns="http://www.w3.org/2000/svg" xmlns:xlink="http://www.w3.org/1999/xlink">
    <!-- Generator: Sketch 52 (66869) - http://www.bohemiancoding.com/sketch -->
    <title>Group</title>
    <desc>Created with Sketch.</desc>
    <g id="Page-1" stroke="none" stroke-width="1" fill="none" fill-rule="evenodd">
        <g id="Group" fill-rule="nonzero">
            <rect id="Rectangle" fill="#000000" x="0" y="0" width="1242" height="2688"></rect>
            <path d="M113.007292,0 C94.3819903,0 50.4778131,9.5949613 24.0892256,46.2821327 C-1.05328646,81.2341957 1.7115905,121.047391 1.7115905,149.888855 C1.7115905,432.758687 2.27373675e-13,2399.57959 2.27373675e-13,2487.68349 C2.27373675e-13,2579.5358 6.7617229,2615.67603 21.3149443,2635.6675 C58.1376508,2693.80778 128.392798,2687.3247 143.486769,2687.3247 C338.608086,2687.3247 882.268475,2687.82448 1077.38979,2687.82448 C1162.96932,2689.58317 1183.36264,2678.22009 1211.98946,2649.44935 C1244.82472,2616.43986 1242.49244,2566.78181 1241.5285,2461.21366 L1241.5285,212.668663 C1243.58335,94.4926876 1239.76518,63.6285025 1213.04274,37.4415664 C1181.74979,6.77069505 1160.27027,0.202743654 1092.73768,0.198028685 C1057.75352,0.198028685 980.957655,0.273468184 953.181926,0.273468184 C941.393582,0.273468184 936.545643,7.94943722 936.545643,18.7844353 C936.545643,47.3524306 916.989311,90.1360566 865.834385,90.1360566 C695.611068,90.1360566 425.63588,89.9097381 381.16274,89.9097381 C332.744478,89.9097381 312.111348,57.984685 309.64741,27.5542771 C307.71952,3.68239055 300.98601,0.10844428 287.909271,0.10844428 C226.790443,0.10844428 179.378446,0 113.007292,0 Z" id="Shape" fill="#FFFFFF"></path>
        </g>
    </g>
</svg>