<svg xmlns="http://www.w3.org/2000/svg" viewBox="0 0 12 12" width="12" height="12">
	<style>
		tspan { white-space:pre }
		.shp0 { fill: #3b4952 } 
	</style>
	<path id="Shape" class="shp0" d="M4.5,0c0.28,0 0.5,0.22 0.5,0.5v11c0,0.28 -0.22,0.5 -0.5,0.5h-4c-0.28,0 -0.5,-0.22 -0.5,-0.5v-11c0,-0.28 0.22,-0.5 0.5,-0.5zM1,11h3v-10h-3zM8.01,1.16l2.83,2.83c0.19,0.2 0.19,0.51 0,0.71l-2.12,2.12l-2.12,2.12l-0.6,0.6v-1.9l0.24,0.24l1.41,-1.42l-1.66,-1.66v-2.34l1.3,-1.3c0.09,-0.09 0.22,-0.14 0.35,-0.14c0.13,0 0.26,0.05 0.36,0.14zM6.24,3.63l2.12,2.12l1.41,-1.41l-2.12,-2.12zM11.5,7c0.28,0 0.5,0.22 0.5,0.5v4c0,0.28 -0.22,0.5 -0.5,0.5h-5.5v-1h2v-2.05l1.43,-1.43l0.52,-0.52zM9,11h2v-3h-2zM3,9.5c0,0.28 -0.22,0.5 -0.5,0.5c-0.28,0 -0.5,-0.22 -0.5,-0.5c0,-0.28 0.22,-0.5 0.5,-0.5c0.28,0 0.5,0.22 0.5,0.5z" />
</svg>