<svg xmlns="http://www.w3.org/2000/svg" viewBox="0 0 14 12" width="14" height="12">
	<style>
		tspan { white-space:pre }
		.shp0 { fill: #3b4952 } 
	</style>
	<path id="Shape" class="shp0" d="M12.5,0c0.82,0 1.5,0.68 1.5,1.5v9c0,0.82 -0.68,1.5 -1.5,1.5h-11c-0.82,0 -1.5,-0.68 -1.5,-1.5v-9c0,-0.82 0.68,-1.5 1.5,-1.5zM1,1.5v9c0,0.28 0.22,0.5 0.5,0.5h11c0.28,0 0.5,-0.22 0.5,-0.5v-9c0,-0.28 -0.22,-0.5 -0.5,-0.5h-11c-0.28,0 -0.5,0.22 -0.5,0.5zM8.25,3h1.75v1.75l1,1.25l-1,1.25v1.75h-1.75l-1.25,1l-1.25,-1h-1.75v-1.75l-1,-1.25l1,-1.25v-1.75h1.75l1.25,-1zM7,8.72l0.9,-0.72h1.1v-1.1l0.72,-0.9l-0.72,-0.9v-1.1h-1.1l-0.9,-0.72z" />
</svg>