<?xml version="1.0" encoding="UTF-8"?>
<svg width="19px" height="19px" viewBox="0 0 19 19" version="1.1" xmlns="http://www.w3.org/2000/svg" xmlns:xlink="http://www.w3.org/1999/xlink">
    <!-- Generator: Sketch 51.3 (57544) - http://www.bohemiancoding.com/sketch -->
    <title>Shape</title>
    <desc>Created with Sketch.</desc>
    <defs>
        <filter x="-2.8%" y="-2.4%" width="104.7%" height="105.9%" filterUnits="objectBoundingBox" id="filter-1">
            <feOffset dx="-1" dy="1" in="SourceAlpha" result="shadowOffsetOuter1"></feOffset>
            <feGaussianBlur stdDeviation="1.5" in="shadowOffsetOuter1" result="shadowBlurOuter1"></feGaussianBlur>
            <feColorMatrix values="0 0 0 0 0   0 0 0 0 0   0 0 0 0 0  0 0 0 0.0960427989 0" type="matrix" in="shadowBlurOuter1" result="shadowMatrixOuter1"></feColorMatrix>
            <feMerge>
                <feMergeNode in="shadowMatrixOuter1"></feMergeNode>
                <feMergeNode in="SourceGraphic"></feMergeNode>
            </feMerge>
        </filter>
    </defs>
    <g id="Symbols" stroke="none" stroke-width="1" fill="none" fill-rule="evenodd">
        <g id="Adjustment-expanded" transform="translate(-16.000000, -55.000000)" fill="#3B4952" fill-rule="nonzero">
            <g id="Adjustment">
                <g id="Mockup-Layer-Copy-5" filter="url(#filter-1)">
                    <g id="Group-9" transform="translate(8.000000, 46.000000)">
                        <g id="Row-/-Black-Clay-Copy" transform="translate(12.000000, 11.000000)">
                            <path d="M0.5,0 C0.222656,0 0,0.222656 0,0.5 L0,12.5 C0,12.777344 0.222656,13 0.5,13 L12.5,13 C12.777344,13 13,12.777344 13,12.5 L13,0.5 C13,0.222656 12.777344,0 12.5,0 L0.5,0 Z M1,1 L11.292969,1 L1,11.292969 L1,1 Z M12,1.707031 L12,12 L1.707031,12 L12,1.707031 Z M3,2 L3,3 L2,3 L2,4 L3,4 L3,5 L4,5 L4,4 L5,4 L5,3 L4,3 L4,2 L3,2 Z M8,9 L8,10 L11,10 L11,9 L8,9 Z" id="Shape"></path>
                        </g>
                    </g>
                </g>
            </g>
        </g>
    </g>
</svg>