<?xml version="1.0" encoding="UTF-8"?>
<svg width="32px" height="32px" viewBox="0 0 32 32" version="1.1" xmlns="http://www.w3.org/2000/svg" xmlns:xlink="http://www.w3.org/1999/xlink">
    <!-- Generator: Sketch 51.3 (57544) - http://www.bohemiancoding.com/sketch -->
    <title>Group</title>
    <desc>Created with Sketch.</desc>
    <defs></defs>
    <g id="Symbols" stroke="none" stroke-width="1" fill="none" fill-rule="evenodd">
        <g id="Adjustment" transform="translate(-8.000000, -8.000000)" fill-rule="nonzero">
            <g id="Group" transform="translate(8.000000, 8.000000)">
                <rect id="Rectangle-16" stroke="#D65639" fill="#F97050" x="0.5" y="0.559627329" width="31" height="30.1652174" rx="5"></rect>
                <g id="Group-5" transform="translate(9.000000, 10.000000)" fill="#FFFFFF">
                    <path d="M1.14285714,0 C0.511428571,0 0,0.511428571 0,1.14285714 L0,10.2857143 C0,10.9171429 0.511428571,11.4285714 1.14285714,11.4285714 L8.66964286,11.4285714 L10.3839286,9.71428571 L1.71428571,9.71428571 L1.71428571,5.71428571 L3.02232143,4.40625029 C3.56232143,3.86624971 4.43767857,3.86624971 4.97767886,4.40625029 L6.84151771,6.27008914 L8.08928571,7.51785714 C8.33042857,7.759 8.71979486,7.756768 8.96093771,7.51562514 C9.202652,7.27448229 9.202652,6.88233943 8.96093771,6.64062514 L8.30245543,5.98325886 L8.73660686,5.54910743 C9.27660743,5.00910686 10.151964,5.00910686 10.6919646,5.54910743 L12.620536,7.47767886 L14.8571429,5.24107143 L14.8571429,1.14285714 C14.8571429,0.511428571 14.3457143,0 13.7142857,0 L1.14285714,0 Z M12,1.71428571 C12.6314286,1.71428571 13.1428571,2.22571429 13.1428571,2.85714286 C13.1428571,3.48857143 12.6314286,4 12,4 C11.3685714,4 10.8571429,3.48857143 10.8571429,2.85714286 C10.8571429,2.22571429 11.3685714,1.71428571 12,1.71428571 Z M14.5691966,7.42857143 C14.393768,7.42857143 14.2188211,7.495464 14.0848217,7.629464 L13.6004463,8.11383943 L15.314732,9.82812514 L15.7991074,9.34374971 C16.0671074,9.07574971 16.0671074,8.641884 15.7991074,8.373884 L15.0546874,7.629464 C14.9206874,7.495464 14.7446251,7.42857143 14.5691966,7.42857143 Z M12.9140623,8.80022343 L10.1718749,11.5424109 L10.685268,11.7142857 L10.8571429,12.5714286 L11.7142857,12.7433034 L11.8861606,13.2566966 L14.628348,10.5145091 L12.9140623,8.80022343 Z M9.53794629,12.9665177 L9.15736629,14.0457589 C9.15698888,14.0465001 9.15661687,14.0472442 9.15625029,14.0479909 L9.15625029,14.0491074 C9.14762867,14.0696115 9.14307973,14.0915975 9.14285714,14.1138394 C9.14273822,14.1594598 9.16080823,14.203246 9.19306683,14.2355046 C9.22532543,14.2677632 9.2691116,14.2858332 9.314732,14.2857143 C9.33532867,14.2856448 9.35574425,14.2818642 9.375,14.2745537 L9.376116,14.2745537 L10.4620537,13.8906251 L9.53794629,12.9665177 Z" id="Shape"></path>
                </g>
            </g>
        </g>
    </g>
</svg>