<?xml version="1.0" encoding="UTF-8"?>
<svg width="13px" height="13px" viewBox="4 2 13 13" version="1.1" xmlns="http://www.w3.org/2000/svg" xmlns:xlink="http://www.w3.org/1999/xlink">
    <!-- Generator: Sketch 51.3 (57544) - http://www.bohemiancoding.com/sketch -->
    <title>Shape</title>
    <desc>Created with Sketch.</desc>
    <defs>
        <filter x="-2.8%" y="-2.4%" width="104.7%" height="105.9%" filterUnits="objectBoundingBox" id="filter-1">
            <feOffset dx="-1" dy="1" in="SourceAlpha" result="shadowOffsetOuter1"></feOffset>
            <feGaussianBlur stdDeviation="1.5" in="shadowOffsetOuter1" result="shadowBlurOuter1"></feGaussianBlur>
            <feColorMatrix values="0 0 0 0 0   0 0 0 0 0   0 0 0 0 0  0 0 0 0.0960427989 0" type="matrix" in="shadowBlurOuter1" result="shadowMatrixOuter1"></feColorMatrix>
            <feMerge>
                <feMergeNode in="shadowMatrixOuter1"></feMergeNode>
                <feMergeNode in="SourceGraphic"></feMergeNode>
            </feMerge>
        </filter>
    </defs>
    <g id="Symbols" stroke="none" stroke-width="1" fill="none" fill-rule="evenodd">
        <g id="Adjustment-expanded" transform="translate(-16.000000, -83.000000)" fill="#3B4952" fill-rule="nonzero">
            <g id="Adjustment">
                <g id="Mockup-Layer-Copy-5" filter="url(#filter-1)">
                    <g id="Group-9" transform="translate(8.000000, 46.000000)">
                        <g id="Row-/-Black-Clay-Copy-2" transform="translate(12.000000, 39.000000)">
                            <path d="M6.5,0 C6.331,0 6.166,0.0133906 6,0.0253906 C2.6493796,0.2821938 0,3.0847334 0,6.5 C0,9.915267 2.6493796,12.717806 6,12.974609 C6.166,12.987609 6.331,13 6.5,13 C10.083929,13 13,10.083929 13,6.5 C13,2.9160714 10.083929,0 6.5,0 Z M6,1.0253906 L6,11.974609 C3.1926242,11.722293 1,9.374417 1,6.5 C1,3.6255829 3.1926242,1.2777074 6,1.0253906 Z M9,3 C9.552,3 10,3.448 10,4 C10,4.552 9.552,5 9,5 C8.448,5 8,4.552 8,4 C8,3.448 8.448,3 9,3 Z M3.5,4 C3.22385763,4 3,4.22385763 3,4.5 C3,4.77614237 3.22385763,5 3.5,5 C3.77614237,5 4,4.77614237 4,4.5 C4,4.22385763 3.77614237,4 3.5,4 Z M4,7 C3.44771525,7 3,7.44771525 3,8 C3,8.55228475 3.44771525,9 4,9 C4.55228475,9 5,8.55228475 5,8 C5,7.44771525 4.55228475,7 4,7 Z M10.5,7 C10.776,7 11,7.224 11,7.5 C11,7.776 10.776,8 10.5,8 C10.224,8 10,7.776 10,7.5 C10,7.224 10.224,7 10.5,7 Z" id="Shape"></path>
                        </g>
                    </g>
                </g>
            </g>
        </g>
    </g>
</svg>