<svg xmlns="http://www.w3.org/2000/svg" viewBox="0 0 14 14" width="14" height="14">
	<style>
		tspan { white-space:pre }
		.shp0 { fill: #3b4952 } 
	</style>
	<path id="Shape" class="shp0" d="M14,7.5c0,3.58 -2.92,6.5 -6.5,6.5c-0.17,0 -0.33,-0.01 -0.5,-0.03c-3.35,-0.26 -6,-3.06 -6,-6.47c0,-3.42 2.65,-6.22 6,-6.47c0.17,-0.01 0.33,-0.03 0.5,-0.03c3.58,0 6.5,2.92 6.5,6.5zM2,7.5c0,2.87 2.19,5.22 5,5.47v-10.95c-2.81,0.25 -5,2.6 -5,5.47zM9,5c0,0.55 0.45,1 1,1c0.55,0 1,-0.45 1,-1c0,-0.55 -0.45,-1 -1,-1c-0.55,0 -1,0.45 -1,1zM5,5.5c0,0.28 -0.22,0.5 -0.5,0.5c-0.28,0 -0.5,-0.22 -0.5,-0.5c0,-0.28 0.22,-0.5 0.5,-0.5c0.28,0 0.5,0.22 0.5,0.5zM6,9c0,0.55 -0.45,1 -1,1c-0.55,0 -1,-0.45 -1,-1c0,-0.55 0.45,-1 1,-1c0.55,0 1,0.45 1,1zM11,8.5c0,0.28 0.22,0.5 0.5,0.5c0.28,0 0.5,-0.22 0.5,-0.5c0,-0.28 -0.22,-0.5 -0.5,-0.5c-0.28,0 -0.5,0.22 -0.5,0.5z" />
</svg>