<svg xmlns="http://www.w3.org/2000/svg" viewBox="0 0 14 13" width="14" height="13">
	<style>
		tspan { white-space:pre }
		.shp0 { fill: #ffffff } 
	</style>
	<path id="Shape" class="shp0" d="M13.51,6.5c0,3.58 -2.95,6.5 -6.57,6.5c-3.62,0 -6.57,-2.92 -6.57,-6.5c0,-3.58 2.95,-6.5 6.57,-6.5c3.62,0 6.57,2.92 6.57,6.5zM1.39,6.5c0,3.04 2.48,5.5 5.56,5.5c3.07,0 5.56,-2.46 5.56,-5.5c0,-3.04 -2.48,-5.5 -5.56,-5.5c-3.07,0 -5.56,2.46 -5.56,5.5zM10.45,6.27l-0.69,0.72l-2.3,-2.18l0,5.2h-1.01l0,-5.21l-2.31,2.19l-0.69,-0.72l3.5,-3.34z" />
</svg>