<?xml version="1.0" encoding="UTF-8"?>
<svg width="59px" height="59px" viewBox="0 0 59 59" version="1.1" xmlns="http://www.w3.org/2000/svg" xmlns:xlink="http://www.w3.org/1999/xlink">
    <!-- Generator: Sketch 51.3 (57544) - http://www.bohemiancoding.com/sketch -->
    <title>Upload</title>
    <desc>Created with Sketch.</desc>
    <defs></defs>
    <g id="Upload" stroke="none" stroke-width="1" fill="none" fill-rule="evenodd">
        <circle id="Oval" stroke-opacity="0.352779665"  fill="#f96f50" fill-rule="nonzero" cx="29.5" cy="29.5" r="29.5"></circle>
        <path d="M30,18 C23.3870197,18 18,23.3870197 18,30 C18,36.6129803 23.3870197,42 30,42 C36.6129803,42 42,36.6129803 42,30 C42,23.3870197 36.6129803,18 30,18 Z M30,19.92 C35.5769323,19.92 40.08,24.4230677 40.08,30 C40.08,35.5769323 35.5769323,40.08 30,40.08 C24.4230677,40.08 19.92,35.5769323 19.92,30 C19.92,24.4230677 24.4230677,19.92 30,19.92 Z M30,23.76 L23.76,30.1013034 L24.9967568,31.4675797 L29.1075671,27.3019224 L29.1005405,37.2 L30.8994595,37.2 L30.906486,27.3241991 L35.0032432,31.4675797 L36.24,30.1013034 L30,23.76 Z" id="Shape" fill="#FFFFFF" fill-rule="nonzero"></path>
    </g>
</svg>